# xmcd CD database file
# Copyright (C) 1993-1996 Ti Kan
#
# Track frame offsets:
#  150
#  14290
#  31080
#  46767
#  65367
#  80450
#  94907
#  117537
#  132522
#  145065
#  160202
#  183872
#  206145
#  220590
#  232910
#
# Disc length: 3351 seconds
#
# Revision: 1
# Processed by: cddbd v1.5PL3 Copyright (c) Steve Scherf et al.
# Submitted via: Advanced CD Ripper Pro 2.0
#
DISCID=c60d150f
DTITLE=刘欢 - 刘欢作品精选
DYEAR=1998
DGENRE=Country
TTITLE0=好汉歌
TTITLE1=少年壮志不言愁
TTITLE2=心中的太阳
TTITLE3=人生第一次
TTITLE4=去者
TTITLE5=梦回的故乡
TTITLE6=弯弯的月亮
TTITLE7=不能这样活
TTITLE8=千万次的问
TTITLE9=这一拜
TTITLE10=磨刀老头
TTITLE11=亚洲雄风
TTITLE12=昨天下了一夜雨
TTITLE13=情怨
TTITLE14=花落花开
EXTD=
EXTT0=
EXTT1=
EXTT2=
EXTT3=
EXTT4=
EXTT5=
EXTT6=
EXTT7=
EXTT8=
EXTT9=
EXTT10=
EXTT11=
EXTT12=
EXTT13=
EXTT14=
PLAYORDER=
